PathFileType	4	(X/Y/Z)	Patient4_TMGait_0pt8_01_left_45.trc.trc
DataRate	CameraRate	NumFrames	NumMarkers	Units	OrigDataRate	OrigDataStartFrame	OrigNumFrames
84.848484848485	84.848484848485	5	33	mm	84.848484848485	71	       141
Frame#	Time	Sacral			L.Shoulder			Chest			R.Shoulder			Neck			R.ASIS			L.ASIS			R.Thigh.Superior			R.Thigh.Lateral			R.Thigh.Inferior			R.Patella			L.Thigh.Superior			L.Thigh.Lateral			L.Thigh.Inferior			L.Patella			L.Shank.Superior			L.Shank.Lateral			L.Shank.Inferior			R.Shank.Superior			R.Shank.Lateral			R.Shank.Inferior			R.Heel			R.Midfoot.Superior			R.Midfoot.Lateral			R.Toe			L.Heel			L.Midfoot.Lateral			L.Midfoot.Superior			L.Toe			L.Elbow			L.Wrist			R.Elbow			R.Wrist			
		X1	Y1	Z1	X2	Y2	Z2	X3	Y3	Z3	X4	Y4	Z4	X5	Y5	Z5	X6	Y6	Z6	X7	Y7	Z7	X8	Y8	Z8	X9	Y9	Z9	X10	Y10	Z10	X11	Y11	Z11	X12	Y12	Z12	X13	Y13	Z13	X14	Y14	Z14	X15	Y15	Z15	X16	Y16	Z16	X17	Y17	Z17	X18	Y18	Z18	X19	Y19	Z19	X20	Y20	Z20	X21	Y21	Z21	X22	Y22	Z22	X23	Y23	Z23	X24	Y24	Z24	X25	Y25	Z25	X26	Y26	Z26	X27	Y27	Z27	X28	Y28	Z28	X29	Y29	Z29	X30	Y30	Z30	X31	Y31	Z31	X32	Y32	Z32	X33	Y33	Z33	

71	50.845000000000	894.944749058272	992.915393367029	460.158109635918	1093.844582458744	1429.935113169235	303.888353205416	1177.216584543518	1352.380741756386	472.375616240310	1075.557558743833	1420.180220586050	638.771074361210	1059.608534783632	1483.283552466628	460.611186481868	1117.580178434447	932.594298793000	588.924254539190	1114.319898250219	954.898133597127	312.807656218536	1197.582758900903	767.392180935340	556.512470469223	1164.939201118705	641.973826670048	630.607950361135	1254.841126964232	611.354204175354	549.566457653088	1293.483941759327	530.522237754461	566.483594088438	1110.775605677837	724.044104171242	339.979151494285	990.030873210285	632.840382897118	276.844249814753	1045.470891727182	537.411505882224	342.934439529063	1028.553525798088	471.720831815788	352.948893424870	994.155464916824	406.439037471199	345.713664877896	890.954207149389	303.828224839002	295.394045825107	924.119318124547	188.691251521205	370.687484720370	1282.594311946108	440.725711004957	575.839096782322	1236.273263674821	322.611588017352	636.278186929858	1311.713509241170	242.410235159706	583.947417827408	1233.174900943338	49.881417843629	551.092548045468	1388.771949383387	134.702405138897	594.142129679694	1316.993502882775	52.023527622503	624.889652137872	1515.686216755280	107.049933528613	619.517974864628	780.970817528552	40.254980144787	413.895377102322	855.642593538250	36.325390159691	334.497685799137	939.615852826353	95.991343770541	362.246062528649	1067.605159490418	41.257203969339	335.107236741103	1218.821967742078	1148.812416762790	123.235125528577	1475.747661450173	1147.102868075052	152.564919191220	884.139813946394	1130.580550931669	714.438595913692	801.840074378698	884.196776032178	723.873717070618	
72	50.856785714286	896.842064438502	990.040001287356	462.748802142559	1092.808509188776	1427.694647009169	305.696886634864	1176.531675056604	1351.257161261708	474.403857228040	1074.328959834336	1418.902888557564	640.579868632418	1058.329078558942	1481.175451742451	462.359658536818	1119.790739571964	929.960698298526	591.013951775260	1116.146835586312	953.260751173355	314.835096575228	1199.553878397401	763.523318793910	558.501538304146	1164.213448835417	637.672501628111	630.763720280878	1254.710829177199	607.100705633029	550.589310560824	1291.635606695383	525.728603419312	566.562696440950	1110.803080859965	721.930598025368	340.814506542043	988.602996727074	631.860597669077	278.140675408725	1043.486916380437	535.622491975711	343.613062215148	1025.900080565533	469.580599591700	353.559085918348	990.242489011230	404.824660234860	346.307938048215	885.038551114025	304.093851024839	296.015137256449	916.410799461025	188.131411923579	370.737766666032	1280.327224161426	435.602413494308	575.544995364669	1232.515013307065	317.583029328058	634.633359246098	1307.595519856633	237.219061521221	582.392670297383	1227.264872300958	46.935485821958	547.838152949957	1383.276688755171	129.177535690691	592.647121840202	1310.050715331760	48.330688801469	622.854834033639	1509.418292342287	99.804846626113	619.744587072566	771.506477509905	40.715434707599	413.645009072959	846.292286190246	36.404483710775	334.398947936975	930.395344264037	95.977326739782	362.108677344591	1058.299879031235	40.970364785506	334.951902846047	1221.224178420687	1149.317956734086	124.473979623161	1477.631849756677	1154.181160513909	155.125444352108	881.178953451776	1131.398194268317	715.789220206092	795.591152158078	886.148047622713	725.143367930747	
73	50.868571428571	898.826158485014	987.333401553736	465.562507428592	1091.780460779132	1425.543723112258	307.618071569561	1175.968333213236	1350.216705427627	476.492213261173	1073.274502875180	1417.569963128721	642.548498032171	1057.152170704549	1479.172543782726	464.245139945173	1122.118082070429	927.452325455610	593.176346533172	1118.014030387384	951.645331126731	316.997832643956	1201.869736691925	759.883247265432	560.548396581924	1163.682189898334	633.720911998473	630.879522753262	1254.830896528295	603.243935759101	551.585832680372	1289.996778813855	521.100698357537	566.549065137220	1111.263218026305	719.918192338125	341.817773597643	987.769090205860	630.828573019134	279.672802352448	1042.277688929989	533.797793872004	344.471875710640	1024.082729141190	467.276239088922	354.317777836624	986.978827019476	403.088655599508	347.044764183239	879.616120209916	304.500850983545	296.747804623767	908.965913275415	187.623799573638	370.779477786028	1277.971930494461	430.591643199589	575.168881263751	1228.353794966859	312.882883005471	633.126746253163	1302.570056152977	232.010102636862	580.840035470663	1219.333356475574	44.586296684047	544.988736511839	1376.384351753725	123.325465122125	591.051651784482	1301.241675564054	44.933160030520	621.092332794308	1501.604356625943	91.498092721182	619.700028072598	762.053357989536	41.475647951198	413.308391459508	836.974107717351	36.563983951313	334.248548037861	921.301822532885	95.980422678989	361.893286777302	1049.040041044467	40.677216353364	334.779822943400	1222.971731128358	1149.328933350093	125.984729800032	1478.820738736108	1159.887238136583	157.694322496479	879.568630998041	1131.160073496627	717.395901468987	791.246503141237	886.924038787629	726.861245179906	
74	50.880357142857	900.840358661439	984.903216234611	468.536971182624	1090.808597817540	1423.581507061379	309.662946665916	1175.560303956506	1349.309322857486	478.644480305745	1072.448791211752	1416.240675667660	644.689536158362	1056.138119006124	1477.368740466185	466.277524182183	1124.497493804100	925.195112739438	595.411055442017	1119.878949355576	950.121523899763	319.305003621765	1204.394721960211	756.591429821645	562.646921587653	1163.360077775037	630.288352815787	631.069348338617	1255.131761590485	599.916269488924	552.579661967072	1288.572932204987	516.848313670961	566.510591629949	1112.129204760588	718.082774899448	343.027784818712	987.551900417421	629.780891773012	281.431103750934	1041.892167599710	531.992013120085	345.514957489980	1023.171082182881	464.847637773456	355.177333776551	984.400739497034	401.284277609918	347.891221882925	874.725500050366	305.128484156031	297.572630406225	901.838972794064	187.247701389630	370.778215738985	1275.641533610113	425.937460226091	574.793056801850	1224.103040813837	308.699781194139	631.902241034523	1297.030386735150	227.067248312393	579.388804898034	1210.061734179468	42.855384644699	542.664646616196	1368.613336112526	117.548008842962	589.402724394121	1291.291737750335	42.006530772793	619.664369558762	1492.851464259735	82.828658960729	619.365158670831	752.644571334049	42.686498596214	412.875035474856	827.698129119763	36.874126463429	334.037205449633	912.390711326951	96.014399070051	361.566661297191	1039.814134493546	40.380605716596	334.599740842449	1224.020367296504	1148.829111338559	127.787597685428	1479.336881321525	1164.178687490112	160.254313041823	879.297653785737	1129.916294755160	719.281795325472	788.883147656052	886.524545791387	729.048043852017	
75	50.892142857143	902.818509642417	982.853087778685	471.602662936243	1089.936190387778	1421.910530341663	311.836832898711	1175.328210728609	1348.591688786421	480.862945626506	1071.892246837259	1414.996360394820	647.004847402090	1055.332627564925	1475.859887034868	468.460155029955	1126.859271279330	923.316553190805	597.726811777943	1121.693572519879	948.766936298810	321.763920629291	1206.993045708671	753.784676531857	564.791469034312	1163.281753613430	627.533058215643	631.445139974464	1255.552552596816	597.233907962813	553.597346534251	1287.365532003209	513.160253249427	566.534557284837	1113.372447748176	716.507147031301	344.480435492933	987.984783208624	628.751775059675	283.397874230152	1042.401799000523	530.266576534885	346.737886396961	1023.255710549409	462.342766949867	356.079627644456	982.570525290071	399.471169854944	348.804454859761	870.430019966871	306.066620903313	298.471201306167	895.110023323641	187.096492312216	370.703177732604	1273.424039956234	421.852600757649	574.507360528766	1220.002178545160	305.202245358342	631.082684289484	1291.287106868783	222.644064993871	578.132686979468	1200.048180836564	41.722537068925	540.921756131380	1360.363828819758	112.218592653448	587.776324614073	1280.809557828198	39.672031385597	618.601358377363	1483.638330867398	74.478447217297	618.790680297635	743.336664018809	44.535904997606	412.342320378003	818.484703301409	37.439060741002	333.761908574016	903.732093696135	96.102558096995	361.102089408488	1030.602872018400	40.076285368648	334.425612215995	1224.326473011169	1147.824939649091	129.903847428069	1479.191789959898	1167.016457262075	162.790329510259	880.337480660473	1127.777195520878	721.465813700919	788.587532807265	884.998258896060	731.709232468968	
